<svg xmlns="http://www.w3.org/2000/svg" viewBox="0 0 3105.58 627.44"><title>Asset 2</title><g id="Layer_2" data-name="Layer 2"><g id="Layer_1-2" data-name="Layer 1"><path d="M2181.05,551.07c1.45-2.51,2.36-4,3.21-5.55l86.84-156.43c.78-1.4,1.53-2.81,2.41-4.14,4.38-6.58,11.2-9,18.84-6.77,5.54,1.6,8.56,5.37,9.47,10.9a35.39,35.39,0,0,1,.27,5.74q0,107.73,0,215.47a42.52,42.52,0,0,1-.18,4.79c-.74,6.85-5.27,11.4-12.15,12.09a29.39,29.39,0,0,1-6.22,0c-6.35-.7-10.55-4.55-11.71-10.87a43.14,43.14,0,0,1-.57-7.63q0-73.89,0-147.8c0-1.6,0-3.2,0-4.8,0-.54.2-1.34-1-1.49-.82,1.41-1.72,2.89-2.56,4.4L2180,617.12c-.77,1.4-1.53,2.81-2.43,4.13a13.17,13.17,0,0,1-9,5.79,25.38,25.38,0,0,1-6.22.15c-7-.6-11.48-4.93-12.35-11.85a63.07,63.07,0,0,1-.34-7.66q0-89.73,0-179.47c0-10.88,0-21.76,0-32.64a40.73,40.73,0,0,1,.5-7.16,12.21,12.21,0,0,1,9.06-10.14,20.2,20.2,0,0,1,11.35-.11c5.53,1.52,8.69,5.21,9.52,10.81a54.09,54.09,0,0,1,.43,7.65q0,73.42,0,146.84c0,1.6,0,3.2,0,4.8A23.07,23.07,0,0,0,2181.05,551.07ZM121.4,128.58c-1.36-.12-2.59-.32-3.83-.33-5.12,0-10.24,0-15.36,0A40.12,40.12,0,0,1,97,128c-5.72-.81-9.55-4.37-11-9.93a20.08,20.08,0,0,1,.15-10.9,12.14,12.14,0,0,1,9.13-8.94,25.56,25.56,0,0,1,6.16-.79q17.52-.11,35,0a28.14,28.14,0,0,1,5.71.64c5.81,1.25,9.09,5,10.19,10.77a28.76,28.76,0,0,1,.29,5.26q0,59.74,0,119.5a36.37,36.37,0,0,1-.17,4.31C151.68,244,148,248.17,142,249.51a24.1,24.1,0,0,1-5.24.46q-36.94,0-73.9,0a69.55,69.55,0,0,1-9.55-.83C28,245.49,7.93,224.51,2.41,203.67A75.72,75.72,0,0,1,0,184.21q0-31.92,0-63.83Q0,93,0,65.67a72.18,72.18,0,0,1,3-21.3C9.33,23.74,30.91.29,62.53.12c24.79-.13,49.59,0,74.39,0a24.46,24.46,0,0,1,3.83.21c5.72,1,9.71,4,11.23,9.75A20.85,20.85,0,0,1,152,21a12.16,12.16,0,0,1-9.42,9.23,29.18,29.18,0,0,1-4.73.7c-1.75.13-3.52.05-5.28.05-23,0-46.07,0-69.11,0-18.25,0-31.55,15.58-32.22,29.61-.11,2.24-.3,4.47-.3,6.71q0,57.83,0,115.66c0,2.24.19,4.47.3,6.71C31.94,203.94,45.25,219,63,219.09c18.56.07,37.11,0,55.67,0a16.63,16.63,0,0,0,2.63-.4c.62-4.87.89-67.25.4-87.07C121.7,130.69,121.53,129.76,121.4,128.58Zm987.82,467.68c2.27.09,3.84.22,5.4.22H1165c1.44,0,2.88,0,4.32-.07,15.17-.64,26.2-12.29,29.33-23.2a35.67,35.67,0,0,0,1.28-10q0-60.71,0-121.4c0-1-.07-1.92-.1-2.88-.52-15.38-13.63-28-26-29.92a57.42,57.42,0,0,0-8.58-.72c-23.19-.06-46.38,0-69.57-.07a33.21,33.21,0,0,1-7.58-.81c-5.18-1.25-8.17-4.83-9.27-9.93a21.93,21.93,0,0,1,0-9.54c1.13-4.89,4-8.37,9-9.66a28.72,28.72,0,0,1,7.09-.85q36-.09,72,0a80.32,80.32,0,0,1,10,.76c25.15,3.29,44.39,23.22,50.71,42.49a69.93,69.93,0,0,1,3.21,22.2q-.06,55.9,0,111.8,0,5,0,10.08a63.2,63.2,0,0,1-3.66,20.68c-6.51,18.58-27.12,41.72-58.83,41.83-24.79.09-49.59,0-74.38,0a27.33,27.33,0,0,1-3.83-.22,12.83,12.83,0,0,1-11.48-11.7,40.07,40.07,0,0,1-.26-4.78q0-59.5,0-119a36.87,36.87,0,0,1,.31-5.26,12.52,12.52,0,0,1,10.46-11,29.64,29.64,0,0,1,5.71-.57q17-.09,34.07,0a29.82,29.82,0,0,1,6.19.63c5.35,1.17,8.67,4.52,10,9.85a20.63,20.63,0,0,1,0,10,12.49,12.49,0,0,1-10.43,10,31.31,31.31,0,0,1-5.73.4c-5,.06-9.92,0-14.87,0-1.41,0-2.82.16-4.83.28C1109.22,536,1109.22,565.87,1109.22,596.26ZM2417.38,476.09q0-39.82,0-79.67a55.54,55.54,0,0,1,.39-7.18c.82-6.05,4.29-9.81,10.22-11.26a20,20,0,0,1,9.51,0c6.13,1.44,9.65,5.31,10.42,11.62a63.06,63.06,0,0,1,.33,7.66q0,74.63,0,149.27c0,3,.1,6.07.26,9.11,1.11,19.79,16.76,35.2,32.34,39.32a53.16,53.16,0,0,0,16.18,1.48c19.5-.87,36.77-15.54,40.95-34.65a59.91,59.91,0,0,0,1-12.88q0-57.11,0-114.23c0-13.27,0-26.55,0-39.83a34.1,34.1,0,0,1,.73-7.13,12.06,12.06,0,0,1,8.68-9.37,20.3,20.3,0,0,1,10.43-.45c6.46,1.35,10.27,5.73,10.84,12.33.16,1.91.14,3.84.14,5.75q0,76.32,0,152.63c0,2.56.09,5.14-.15,7.68a98.24,98.24,0,0,1-1.6,11.86c-4.54,20.62-16.39,36.21-33.79,47.66-16.11,10.6-34,13.28-52.86,10.72-30.28-4.12-54.31-28.9-61.19-53.72a88.45,88.45,0,0,1-2.95-23.72Zm-2073.5-410c-.51,1.33-1.05,2.59-1.48,3.88q-7.69,23-15.37,45.91-20.08,60.24-40.16,120.51a53.29,53.29,0,0,1-2,5.38,13.4,13.4,0,0,1-9.73,7.81,19.59,19.59,0,0,1-9-.15A12.84,12.84,0,0,1,256,238a24,24,0,0,1,1.22-10.84q35.52-106.41,70.93-212.86A43,43,0,0,1,330,9.4c2.87-6,7.51-9.37,14.37-9.3s11.42,3.54,14.12,9.65c.84,1.89,1.43,3.9,2.09,5.87q31.08,93.23,62.15,186.47c2.88,8.64,5.72,17.3,8.66,25.92a19.67,19.67,0,0,1,.36,12.7,12.45,12.45,0,0,1-8,8.3,19.62,19.62,0,0,1-8,.91,13.8,13.8,0,0,1-12.39-8.45,38.3,38.3,0,0,1-1.49-4q-7.22-21.6-14.43-43.2c-.55-1.62-.72-3.46-2.42-5H345c-4.48,0-9,.06-13.44,0s-8.88.37-13.58-.37c1-5.41,3-10.27,4.65-15.23s3-10.05,5.21-15.09c5.37-.33,10.62-.13,15.87-.16s10.24.06,15.35,0,10.45.38,15.74-.31a6.28,6.28,0,0,0,0-1.66q-14.92-44.79-29.92-89.55C344.78,66.58,344.38,66.46,343.88,66.11Zm1621.38,311c4.94.34,9.9.45,14.8,1.07,26,3.31,45.54,24.62,51.38,43.69a70.46,70.46,0,0,1,2.46,28c-1.64,16.34-8.62,29.95-21.53,40.34a83.43,83.43,0,0,1-14.59,9.18q-32.23,16.48-64.46,33a64.71,64.71,0,0,0-8.61,5.19,27.61,27.61,0,0,0-11.28,17.8,51.81,51.81,0,0,0-.58,10.5c.34,15.4,14.8,30.51,31.83,30.54a101.21,101.21,0,0,0,18.16-1.26c5.51-1,11-2.1,16.13-4.47,10.16-4.7,20.26-9.52,30-15.09a33.66,33.66,0,0,1,5.18-2.47,14.82,14.82,0,0,1,17.38,5.6,15,15,0,0,1-.59,18.27,25.55,25.55,0,0,1-4.23,3.88,130.67,130.67,0,0,1-29.07,16.61,127.25,127.25,0,0,1-40,9.39,110.82,110.82,0,0,1-20.12-.08c-29.21-3.36-47.5-26.33-52.82-43.88a70.83,70.83,0,0,1-2.58-26.56c1.34-16.58,8.1-30.41,20.92-41.16a83,83,0,0,1,15.73-10.05q32-16.38,64-32.8a74.26,74.26,0,0,0,7.87-4.57,27.9,27.9,0,0,0,10.89-14.23,35.65,35.65,0,0,0,1-19.86A32.94,32.94,0,0,0,1971,408.33a136,136,0,0,0-31.41,3.37,175.4,175.4,0,0,0-22.95,6.87c-2.52.93-5.26,1.9-7.86,1.81-6.48-.21-11.21-3.64-13.7-9.63s-1.31-11.38,3.1-15.94a27.23,27.23,0,0,1,6.15-4.51,77.37,77.37,0,0,1,17.28-7.05C1935.87,379.13,1950.49,377.82,1965.26,377.15ZM1114.55,96.83a15,15,0,0,0,5.53.51c16.64,0,33.28,0,49.91,0a33.39,33.39,0,0,1,7.6.82,11.89,11.89,0,0,1,8.8,8.06,20.45,20.45,0,0,1,.53,11.36c-1.32,6-5.53,9.68-11.69,10.38a50.15,50.15,0,0,1-5.75.21c-16.48,0-33,0-49.44,0-1.72,0-3.5-.31-5.25.5-.69,1.74-.39,3.51-.39,5.23q0,23,0,46.08c0,11.52,0,23,0,34.56,0,1.38-.42,2.89.95,4.45,1.94,0,4.16.05,6.37.05,24.16,0,48.32,0,72.48,0a32.72,32.72,0,0,1,7.59.78c5.57,1.34,8.74,5.13,9.56,10.72a27.67,27.67,0,0,1,.1,7.16c-.79,6.94-5.25,11.27-12.22,12a55.05,55.05,0,0,1-5.75.16h-91.67c-1.6,0-3.21,0-4.8-.07-7.81-.54-12.66-5.27-13.38-13.08-.16-1.75-.1-3.52-.1-5.27V18.46a35.11,35.11,0,0,1,0-3.84,29.06,29.06,0,0,1,.88-5.18,12.16,12.16,0,0,1,8.38-8.5,23.18,23.18,0,0,1,7.58-.86H1195a38.72,38.72,0,0,1,4.31.16c7,.77,11.4,5.09,12.18,12.06a28.05,28.05,0,0,1-.12,7.15c-.83,5.6-4,9.35-9.59,10.7a30.88,30.88,0,0,1-7.12.76c-18.08.06-36.16,0-54.24,0-7.35,0-14.71,0-22.07,0a35.32,35.32,0,0,0-3.77.42ZM1689.82,561.2l.91-.08c.53-1.49,1.07-3,1.58-4.47q27.69-83,55.39-166a43.81,43.81,0,0,1,2-5.36,12.72,12.72,0,0,1,9-7.25,24.76,24.76,0,0,1,6.65-.49c7.75.52,12.6,5.5,13.22,13.23a23.39,23.39,0,0,1-1.44,9.4q-16.58,49.55-33.07,99.13-19.11,57.3-38.24,114.59a36.41,36.41,0,0,1-2.59,6.17A13.14,13.14,0,0,1,1694,627c-8.13,1.47-14.5-1.3-18-9.18-.84-1.9-1.42-3.9-2.08-5.87l-61.13-183.27c-3.28-9.85-6.53-19.72-9.84-29.56a19.56,19.56,0,0,1-.13-12.71,12.16,12.16,0,0,1,7.78-7.91,18.91,18.91,0,0,1,10.4-.68,13.39,13.39,0,0,1,9.85,7.66,48.17,48.17,0,0,1,2,5.37q27.71,83,55.39,166C1688.72,558.3,1689.29,559.74,1689.82,561.2Zm1370.09-55.57h-5.46c-8.16,0-16.32,0-24.48,0-9.14.07-17.81,1.93-25.48,7.17-13.71,9.35-20.71,22.31-20.54,39,.09,9.88,2.79,19,8.94,26.82,9,11.53,20.75,17.77,35.53,17.86,9,.06,17.92,0,26.88,0,1.56,0,3.12.14,4.86.22.69,2.8.37,5.35.42,7.87s0,4.79,0,7.2.06,5.12,0,7.67.37,5.06-.5,7.67c-1.14.08-2.07.21-3,.21-10.24,0-20.48.12-30.72-.09a74,74,0,0,1-12.85-1.38c-28.49-5.58-49.62-28.33-56.8-50.68a75.83,75.83,0,0,1-3.57-20.74,82.45,82.45,0,0,1,4.77-32.05,68.12,68.12,0,0,1,23.47-30.92c1.25-.94,2.47-1.91,3.8-3-.74-.84-1.24-1.46-1.8-2-16.32-16.74-20.89-36.78-16.67-59.3,4.39-23.42,26.78-49.12,60.42-49.72,10.08-.18,20.16-.05,30.24,0a19.57,19.57,0,0,1,2.69.36,6.52,6.52,0,0,1,.45,1.58q0,13.44,0,26.88a7.28,7.28,0,0,1-.59,1.86c-1.73.06-3.31.16-4.89.16-8.48,0-17,.15-25.44,0-17.24-.35-31.21,13.4-33.28,28.7-2.15,15.8,8,31.95,23.28,36.47a38.39,38.39,0,0,0,10.92,1.31c8.32,0,16.64,0,25,0,1.56,0,3.2-.35,4.62.65C3060.82,479.55,3060.77,501.14,3059.91,505.63ZM1384.05,122.08c2.11-.1,3.67-.23,5.23-.23,8.64,0,17.28,0,25.92,0,9.84-.08,19-2.44,27-8.45,12.47-9.38,18.82-21.82,18.68-37.54-.09-11.35-3.66-21.33-11.28-29.8-8.94-9.94-20.09-15-33.5-15.07-9.12,0-18.24,0-27.35,0-1.4,0-2.79-.18-4.44-.3-.53-3.57-.23-6.91-.28-10.23s-.1-6.72,0-10.08-.55-6.65.55-10c1.1-.1,2-.25,3-.25,10.24,0,20.48,0,30.72.06a76.74,76.74,0,0,1,9.07.79c31.39,4,55.3,29.68,61.65,54.27a89,89,0,0,1-1.06,48.3A62.75,62.75,0,0,1,1461.62,139c-3.18,2.11-6.64,3.81-10,5.73-.78.45-1.49,1-2.28,1.55.83,1.73,1.49,3.17,2.2,4.6q9.64,19.31,19.31,38.61,9.1,18.24,18.23,36.47a20.47,20.47,0,0,1,2.54,7.19,15.64,15.64,0,0,1-10.47,16,15,15,0,0,1-17.7-5.94,51.28,51.28,0,0,1-2.72-5.07l-40.35-80.66c-.77-1.55-1.63-3.05-2.56-4.77H1413c-8.16,0-16.32,0-24.48,0-1.39,0-2.9.36-4.48-1.1C1384,142.21,1384,132.48,1384.05,122.08ZM2727.72,523.26c-1.67-.82-2.81-1.36-3.94-1.94s-2.26-1.19-3.37-1.82c-13.71-7.75-24-18.65-29.58-33.45-6.24-16.41-7.18-33.32-3.57-50.47,5.77-27.42,32.93-57.87,72.68-58.12,9.75-.06,19.51,0,29.27,0,1.07,0,2.14.22,3.47.37.54,3.49.26,6.84.3,10.16s.11,6.72,0,10.08.65,6.67-.7,10.15c-1.79,0-3.53.09-5.27.09-9.12,0-18.24-.13-27.35.06a44.78,44.78,0,0,0-41.56,31.44,52.25,52.25,0,0,0-1.74,18.51c1.18,19.48,16.87,36,34.34,39.64a65.69,65.69,0,0,0,11.89,1.22c8.79.18,17.59,0,26.39.08a32.35,32.35,0,0,1,3.52.4c.56,3.68.85,21,.48,27.63a24.72,24.72,0,0,1-.48,2.59c-1.68.08-3.24.21-4.8.21-8.32,0-16.63,0-24.95,0-1.25,0-2.49.17-3.81.26-1,2-2,3.83-2.9,5.68q-20.05,40.1-40.13,80.19a36.11,36.11,0,0,1-2.81,5,15.13,15.13,0,0,1-19.28,4.45c-7-3.7-10.21-11.54-7.57-18.71a57.72,57.72,0,0,1,2.64-5.64q18.32-36.68,36.66-73.34C2726.24,526.59,2726.85,525.15,2727.72,523.26ZM578.85,218.85c1.43.13,2.22.25,3,.26,4.16,0,8.32,0,12.48,0h64.3a26.17,26.17,0,0,1,8.07.89,12.45,12.45,0,0,1,8.79,9.31,21.29,21.29,0,0,1,0,10.46,12.48,12.48,0,0,1-8.27,9.23,21.8,21.8,0,0,1-7.56,1h-95.5a34.93,34.93,0,0,1-3.83-.15c-6.4-.75-10.6-4.4-11.93-10.69a34.79,34.79,0,0,1-.54-7.15q0-107,0-214a44.93,44.93,0,0,1,.12-4.79,15.74,15.74,0,0,1,3.22-8.38c5-6.34,19.19-6.37,24.21,0a14.7,14.7,0,0,1,3.2,8.38c.14,2.23.1,4.47.1,6.71q0,96.23,0,192.43C578.73,214.37,578.81,216.42,578.85,218.85Zm267.82.27h79.74a26.49,26.49,0,0,1,8.07.87,12.49,12.49,0,0,1,8.93,9.75,22.31,22.31,0,0,1,.28,8.11c-1,6.94-5.33,11.24-12.3,12a51.37,51.37,0,0,1-5.27.15H833.5c-1.27,0-2.56,0-3.83-.05-8.3-.43-13.3-5.3-13.9-13.57-.13-1.75-.07-3.52-.07-5.28V19c0-1.44-.1-2.89,0-4.31a29,29,0,0,1,.86-5.18A12.18,12.18,0,0,1,824.94,1,20.82,20.82,0,0,1,833,.15c8,.47,13,5.45,13.48,13.46.14,2.07.07,4.15.07,6.23q0,96.21,0,192.43C846.56,214.32,846.62,216.37,846.67,219.12ZM3075.06,377.44h5.25c4.16,0,8.34-.18,12.47.16,7.56.63,12.19,5.56,12.7,13.15.13,1.91.09,3.83.09,5.75q0,54.94,0,109.88,0,51.57,0,103.15a47.64,47.64,0,0,1-.26,6.22A12.85,12.85,0,0,1,3094.46,627a18.6,18.6,0,0,1-3.34.29c-4.48,0-8.95,0-13.43,0a16.67,16.67,0,0,1-2.91-.59q0-123.17,0-245.84C3074.75,380,3074.91,379,3075.06,377.44ZM2807,378a19.07,19.07,0,0,1,6.23-.51c3.68,0,7.37-.14,11,.08,8.09.47,13,5.41,13.46,13.43.11,1.76.08,3.52.08,5.28v58.08q0,77.28,0,154.55a55.52,55.52,0,0,1-.23,6.71,12.68,12.68,0,0,1-10.24,11.3,21.53,21.53,0,0,1-10-.06c-5.28-1.35-8.7-4.68-9.71-10.1a41.31,41.31,0,0,1-.61-7.62q-.06-69.36,0-138.71,0-43.2-.06-86.4C2806.86,382.09,2806.92,380.19,2807,378ZM1370,.37V6.13q0,15.84-.08,31.67V186.07q0,23.27,0,46.54a48.93,48.93,0,0,1-.16,5.28,12.66,12.66,0,0,1-10,11.52,20.47,20.47,0,0,1-10,.09c-5.69-1.36-9.24-4.93-10.14-10.79a50.06,50.06,0,0,1-.53-7.64q0-106,0-212.09c0-1.12-.07-2.25,0-3.36a37.83,37.83,0,0,1,.68-5.22A11.93,11.93,0,0,1,1348.45,1a22.49,22.49,0,0,1,5.65-.88c4.31-.13,8.63,0,13,0C1367.82.1,1368.59.24,1370,.37Zm298,124.88q0-53.48,0-106.95a53.72,53.72,0,0,1,.2-6.22A12.73,12.73,0,0,1,1678.23.63a20.67,20.67,0,0,1,10,0c5.49,1.33,9,4.75,10,10.38a47.72,47.72,0,0,1,.61,8.1q0,97.35,0,194.71c0,6.4.06,12.79,0,19.19a33.34,33.34,0,0,1-.81,7.11,11.92,11.92,0,0,1-8.44,9,20.39,20.39,0,0,1-11.35.33,12.64,12.64,0,0,1-10-11.47,53.65,53.65,0,0,1-.2-6.22Q1667.94,178.49,1668,125.25ZM1407,502.87q0-53.49,0-107a54.93,54.93,0,0,1,.15-5.74c.72-6.82,4.73-11.23,11.37-12.41a20.29,20.29,0,0,1,10,.55,12.47,12.47,0,0,1,8.48,8.42,23.67,23.67,0,0,1,.91,7.58q0,108.15,0,216.3a29.51,29.51,0,0,1-.69,6.63c-1.35,5.81-5.33,8.93-11.05,9.85a25.58,25.58,0,0,1-5.74.16c-7.58-.46-12.43-5.11-13.21-12.64a55.12,55.12,0,0,1-.14-5.75Q1407,555.87,1407,502.87Z" fill="#6b6b6b" fill-rule="evenodd"/><path d="M2181.05,551.07a23.07,23.07,0,0,1-.55-2.81c-.06-1.6,0-3.2,0-4.8q0-73.43,0-146.84A54.09,54.09,0,0,0,2180,389c-.83-5.6-4-9.29-9.52-10.81a20.2,20.2,0,0,0-11.35.11,12.21,12.21,0,0,0-9.06,10.14,40.73,40.73,0,0,0-.5,7.16c-.05,10.88,0,21.76,0,32.64q0,89.73,0,179.47a63.07,63.07,0,0,0,.34,7.66c.87,6.92,5.39,11.25,12.35,11.85a25.38,25.38,0,0,0,6.22-.15,13.17,13.17,0,0,0,9-5.79c.9-1.32,1.66-2.73,2.43-4.13L2267.63,459c.84-1.51,1.74-3,2.56-4.4,1.22.15,1,.95,1,1.49.06,1.6,0,3.2,0,4.8q0,73.9,0,147.8a43.14,43.14,0,0,0,.57,7.63c1.16,6.32,5.36,10.17,11.71,10.87a29.39,29.39,0,0,0,6.22,0c6.88-.69,11.41-5.24,12.15-12.09a42.52,42.52,0,0,0,.18-4.79q0-107.73,0-215.47a35.39,35.39,0,0,0-.27-5.74c-.91-5.53-3.93-9.3-9.47-10.9-7.64-2.21-14.46.19-18.84,6.77-.88,1.33-1.63,2.74-2.41,4.14l-86.84,156.43C2183.41,547.06,2182.5,548.56,2181.05,551.07Z" fill="#6b6b6b" fill-rule="evenodd"/><path d="M121.4,128.58c.13,1.18.3,2.11.32,3,.49,19.82.22,82.2-.4,87.07a16.63,16.63,0,0,1-2.63.4c-18.56,0-37.11.06-55.67,0C45.25,219,31.94,203.94,31.2,189.64c-.11-2.24-.3-4.47-.3-6.71q0-57.83,0-115.66c0-2.24.19-4.47.3-6.71.67-14,14-29.63,32.22-29.61,23,0,46.07,0,69.11,0,1.76,0,3.53.08,5.28-.05a29.18,29.18,0,0,0,4.73-.7A12.16,12.16,0,0,0,152,21a20.85,20.85,0,0,0,0-10.92c-1.52-5.74-5.51-8.8-11.23-9.75a24.46,24.46,0,0,0-3.83-.21c-24.8,0-49.6-.1-74.39,0C30.91.29,9.33,23.74,3,44.37a72.18,72.18,0,0,0-3,21.3Q0,93,0,120.38q0,31.92,0,63.83a75.72,75.72,0,0,0,2.39,19.46C7.93,224.51,28,245.49,53.27,249.11a69.55,69.55,0,0,0,9.55.83q36.95.1,73.9,0a24.1,24.1,0,0,0,5.24-.46c6-1.34,9.72-5.53,10.45-11.65a36.37,36.37,0,0,0,.17-4.31q0-59.74,0-119.5a28.76,28.76,0,0,0-.29-5.26c-1.1-5.72-4.38-9.52-10.19-10.77a28.14,28.14,0,0,0-5.71-.64q-17.5-.07-35,0a25.56,25.56,0,0,0-6.16.79,12.14,12.14,0,0,0-9.13,8.94,20.08,20.08,0,0,0-.15,10.9c1.48,5.56,5.31,9.12,11,9.93a40.12,40.12,0,0,0,5.26.27c5.12,0,10.24,0,15.36,0C118.81,128.26,120,128.46,121.4,128.58Z" fill="#6b6b6b" fill-rule="evenodd"/><path d="M1109.22,596.26c0-30.39,0-60.23,0-90.34,2-.12,3.42-.27,4.83-.28,5,0,9.91,0,14.87,0a31.31,31.31,0,0,0,5.73-.4,12.49,12.49,0,0,0,10.43-10,20.63,20.63,0,0,0,0-10c-1.3-5.33-4.62-8.68-10-9.85a29.82,29.82,0,0,0-6.19-.63q-17-.09-34.07,0a29.64,29.64,0,0,0-5.71.57,12.52,12.52,0,0,0-10.46,11,36.87,36.87,0,0,0-.31,5.26q0,59.49,0,119a40.07,40.07,0,0,0,.26,4.78,12.83,12.83,0,0,0,11.48,11.7,27.33,27.33,0,0,0,3.83.22c24.79,0,49.59.07,74.38,0,31.71-.11,52.32-23.25,58.83-41.83a63.2,63.2,0,0,0,3.66-20.68q0-5,0-10.08,0-55.89,0-111.8a69.93,69.93,0,0,0-3.21-22.2c-6.32-19.27-25.56-39.2-50.71-42.49a80.32,80.32,0,0,0-10-.76q-36-.11-72,0a28.72,28.72,0,0,0-7.09.85c-5,1.29-7.84,4.77-9,9.66a21.93,21.93,0,0,0,0,9.54c1.1,5.1,4.09,8.68,9.27,9.93a33.21,33.21,0,0,0,7.58.81c23.19.06,46.38,0,69.57.07a57.42,57.42,0,0,1,8.58.72c12.42,1.92,25.53,14.54,26,29.92,0,1,.1,1.92.1,2.88q0,60.69,0,121.4a35.67,35.67,0,0,1-1.28,10c-3.13,10.91-14.16,22.56-29.33,23.2-1.44.06-2.88.07-4.32.07h-50.39C1113.06,596.48,1111.49,596.35,1109.22,596.26Z" fill="#6b6b6b" fill-rule="evenodd"/><path d="M2417.38,476.09v73a88.45,88.45,0,0,0,2.95,23.72c6.88,24.82,30.91,49.6,61.19,53.72,18.88,2.56,36.75-.12,52.86-10.72,17.4-11.45,29.25-27,33.79-47.66a98.24,98.24,0,0,0,1.6-11.86c.24-2.54.15-5.12.15-7.68q0-76.31,0-152.63c0-1.91,0-3.84-.14-5.75-.57-6.6-4.38-11-10.84-12.33a20.3,20.3,0,0,0-10.43.45,12.06,12.06,0,0,0-8.68,9.37,34.1,34.1,0,0,0-.73,7.13c-.07,13.28,0,26.56,0,39.83q0,57.12,0,114.23a59.91,59.91,0,0,1-1,12.88c-4.18,19.11-21.45,33.78-40.95,34.65a53.16,53.16,0,0,1-16.18-1.48c-15.58-4.12-31.23-19.53-32.34-39.32-.16-3-.26-6.08-.26-9.11q0-74.64,0-149.27a63.06,63.06,0,0,0-.33-7.66c-.77-6.31-4.29-10.18-10.42-11.62a20,20,0,0,0-9.51,0c-5.93,1.45-9.4,5.21-10.22,11.26a55.54,55.54,0,0,0-.39,7.18Q2417.36,436.26,2417.38,476.09Z" fill="#6b6b6b" fill-rule="evenodd"/><path d="M343.88,66.11c.5.35.9.47,1,.71q15,44.76,29.92,89.55a6.28,6.28,0,0,1,0,1.66c-5.29.69-10.53.23-15.74.31s-10.23,0-15.35,0-10.5-.17-15.87.16c-2.17,5-3.58,10.11-5.21,15.09S319,183.44,318,188.85c4.7.74,9.16.29,13.58.37s9,0,13.44,0h40c1.7,1.53,1.87,3.37,2.42,5q7.26,21.59,14.43,43.2a38.3,38.3,0,0,0,1.49,4,13.8,13.8,0,0,0,12.39,8.45,19.62,19.62,0,0,0,8-.91,12.45,12.45,0,0,0,8-8.3,19.67,19.67,0,0,0-.36-12.7c-2.94-8.62-5.78-17.28-8.66-25.92q-31.08-93.24-62.15-186.47c-.66-2-1.25-4-2.09-5.87C355.82,3.64,351.27.17,344.4.1S332.9,3.38,330,9.4a43,43,0,0,0-1.88,4.92q-35.46,106.44-70.93,212.86A24,24,0,0,0,256,238a12.84,12.84,0,0,0,10.11,11.43,19.59,19.59,0,0,0,9,.15,13.4,13.4,0,0,0,9.73-7.81,53.29,53.29,0,0,0,2-5.38Q307,176.16,327,115.9q7.67-23,15.37-45.91C342.83,68.7,343.37,67.44,343.88,66.11Z" fill="#6b6b6b" fill-rule="evenodd"/><path d="M1965.26,377.15c-14.77.67-29.39,2-43.64,6.1a77.37,77.37,0,0,0-17.28,7.05,27.23,27.23,0,0,0-6.15,4.51c-4.41,4.56-5.55,10.06-3.1,15.94s7.22,9.42,13.7,9.63c2.6.09,5.34-.88,7.86-1.81a175.4,175.4,0,0,1,22.95-6.87,136,136,0,0,1,31.41-3.37,32.94,32.94,0,0,1,31.55,25.42,35.65,35.65,0,0,1-1,19.86,27.9,27.9,0,0,1-10.89,14.23,74.26,74.26,0,0,1-7.87,4.57q-32,16.44-64,32.8A83,83,0,0,0,1903,515.26c-12.82,10.75-19.58,24.58-20.92,41.16a70.83,70.83,0,0,0,2.58,26.56c5.32,17.55,23.61,40.52,52.82,43.88a110.82,110.82,0,0,0,20.12.08,127.25,127.25,0,0,0,40-9.39,130.67,130.67,0,0,0,29.07-16.61,25.55,25.55,0,0,0,4.23-3.88,15,15,0,0,0,.59-18.27,14.82,14.82,0,0,0-17.38-5.6,33.66,33.66,0,0,0-5.18,2.47c-9.72,5.57-19.82,10.39-30,15.09-5.13,2.37-10.62,3.47-16.13,4.47a101.21,101.21,0,0,1-18.16,1.26c-17,0-31.49-15.14-31.83-30.54a51.81,51.81,0,0,1,.58-10.5,27.61,27.61,0,0,1,11.28-17.8,64.71,64.71,0,0,1,8.61-5.19q32.21-16.58,64.46-33a83.43,83.43,0,0,0,14.59-9.18c12.91-10.39,19.89-24,21.53-40.34a70.46,70.46,0,0,0-2.46-28c-5.84-19.07-25.33-40.38-51.38-43.69C1975.16,377.6,1970.2,377.49,1965.26,377.15Z" fill="#6b6b6b" fill-rule="evenodd"/><path d="M1114.55,96.83V31.39a35.32,35.32,0,0,1,3.77-.42c7.36,0,14.72,0,22.07,0,18.08,0,36.16,0,54.24,0a30.88,30.88,0,0,0,7.12-.76c5.56-1.35,8.76-5.1,9.59-10.7a28.05,28.05,0,0,0,.12-7.15c-.78-7-5.23-11.29-12.18-12.06A38.72,38.72,0,0,0,1195,.08h-94.56a23.18,23.18,0,0,0-7.58.86,12.16,12.16,0,0,0-8.38,8.5,29.06,29.06,0,0,0-.88,5.18,35.11,35.11,0,0,0,0,3.84V231.57c0,1.75-.06,3.52.1,5.27.72,7.81,5.57,12.54,13.38,13.08,1.59.11,3.2.07,4.8.07h91.67a55.05,55.05,0,0,0,5.75-.16c7-.74,11.43-5.07,12.22-12a27.67,27.67,0,0,0-.1-7.16c-.82-5.59-4-9.38-9.56-10.72a32.72,32.72,0,0,0-7.59-.78c-24.16-.06-48.32,0-72.48,0-2.21,0-4.43,0-6.37-.05-1.37-1.56-.94-3.07-.95-4.45,0-11.52,0-23,0-34.56q0-23,0-46.08c0-1.72-.3-3.49.39-5.23,1.75-.81,3.53-.5,5.25-.5,16.48,0,33,0,49.44,0a50.15,50.15,0,0,0,5.75-.21c6.16-.7,10.37-4.37,11.69-10.38a20.45,20.45,0,0,0-.53-11.36,11.89,11.89,0,0,0-8.8-8.06,33.39,33.39,0,0,0-7.6-.82c-16.63-.07-33.27,0-49.91,0A15,15,0,0,1,1114.55,96.83Z" fill="#6b6b6b" fill-rule="evenodd"/><path d="M1689.82,561.2c-.53-1.46-1.1-2.9-1.59-4.37q-27.69-83-55.39-166a48.17,48.17,0,0,0-2-5.37,13.39,13.39,0,0,0-9.85-7.66,18.91,18.91,0,0,0-10.4.68,12.16,12.16,0,0,0-7.78,7.91,19.56,19.56,0,0,0,.13,12.71c3.31,9.84,6.56,19.71,9.84,29.56l61.13,183.27c.66,2,1.24,4,2.08,5.87,3.5,7.88,9.87,10.65,18,9.18a13.14,13.14,0,0,0,9.34-6.91,36.41,36.41,0,0,0,2.59-6.17q19.15-57.28,38.24-114.59,16.53-49.56,33.07-99.13a23.39,23.39,0,0,0,1.44-9.4c-.62-7.73-5.47-12.71-13.22-13.23a24.76,24.76,0,0,0-6.65.49,12.72,12.72,0,0,0-9,7.25,43.81,43.81,0,0,0-2,5.36q-27.71,83-55.39,166c-.51,1.5-1,3-1.58,4.47Z" fill="#6b6b6b" fill-rule="evenodd"/><path d="M3059.91,505.63c.86-4.49.91-26.08.18-30.2-1.42-1-3.06-.64-4.62-.65-8.32,0-16.64,0-25,0a38.39,38.39,0,0,1-10.92-1.31c-15.32-4.52-25.43-20.67-23.28-36.47,2.07-15.3,16-29.05,33.28-28.7,8.48.17,17,0,25.44,0,1.58,0,3.16-.1,4.89-.16a7.28,7.28,0,0,0,.59-1.86q0-13.44,0-26.88a6.52,6.52,0,0,0-.45-1.58,19.57,19.57,0,0,0-2.69-.36c-10.08,0-20.16-.15-30.24,0-33.64.6-56,26.3-60.42,49.72-4.22,22.52.35,42.56,16.67,59.3.56.56,1.06,1.18,1.8,2-1.33,1-2.55,2-3.8,3a68.12,68.12,0,0,0-23.47,30.92,82.45,82.45,0,0,0-4.77,32.05,75.83,75.83,0,0,0,3.57,20.74c7.18,22.35,28.31,45.1,56.8,50.68a74,74,0,0,0,12.85,1.38c10.24.21,20.48.1,30.72.09.93,0,1.86-.13,3-.21.87-2.61.43-5.17.5-7.67s0-5.12,0-7.67,0-4.81,0-7.2.27-5.07-.42-7.87c-1.74-.08-3.3-.22-4.86-.22-9,0-17.92,0-26.88,0-14.78-.09-26.51-6.33-35.53-17.86-6.15-7.87-8.85-16.94-8.94-26.82-.17-16.66,6.83-29.62,20.54-39,7.67-5.24,16.34-7.1,25.48-7.17,8.16-.05,16.32,0,24.48,0Z" fill="#6b6b6b" fill-rule="evenodd"/><path d="M1384.05,122.08c-.06,10.4,0,20.13,0,29.52,1.58,1.46,3.09,1.1,4.48,1.1,8.16,0,16.32,0,24.48,0h4.88c.93,1.72,1.79,3.22,2.56,4.77l40.35,80.66a51.28,51.28,0,0,0,2.72,5.07,15,15,0,0,0,17.7,5.94,15.64,15.64,0,0,0,10.47-16,20.47,20.47,0,0,0-2.54-7.19q-9.12-18.23-18.23-36.47-9.66-19.31-19.31-38.61c-.71-1.43-1.37-2.87-2.2-4.6.79-.55,1.5-1.1,2.28-1.55,3.32-1.92,6.78-3.62,10-5.73A62.75,62.75,0,0,0,1488,103.51a89,89,0,0,0,1.06-48.3C1482.66,30.62,1458.75,5,1427.36.94a76.74,76.74,0,0,0-9.07-.79c-10.24-.11-20.48-.07-30.72-.06-.94,0-1.88.15-3,.25-1.1,3.33-.43,6.69-.55,10S1384,17,1384,20.4s-.25,6.66.28,10.23c1.65.12,3,.3,4.44.3,9.11,0,18.23,0,27.35,0,13.41,0,24.56,5.13,33.5,15.07,7.62,8.47,11.19,18.45,11.28,29.8.14,15.72-6.21,28.16-18.68,37.54-8,6-17.16,8.37-27,8.45-8.64.06-17.28,0-25.92,0C1387.72,121.85,1386.16,122,1384.05,122.08Z" fill="#6b6b6b" fill-rule="evenodd"/><path d="M2727.72,523.26c-.87,1.89-1.48,3.33-2.19,4.74q-18.32,36.68-36.66,73.34a57.72,57.72,0,0,0-2.64,5.64c-2.64,7.17.57,15,7.57,18.71a15.13,15.13,0,0,0,19.28-4.45,36.11,36.11,0,0,0,2.81-5Q2736,576.14,2756,536c.93-1.85,1.88-3.69,2.9-5.68,1.32-.09,2.56-.26,3.81-.26,8.32,0,16.63,0,24.95,0,1.56,0,3.12-.13,4.8-.21a24.72,24.72,0,0,0,.48-2.59c.37-6.63.08-23.95-.48-27.63a32.35,32.35,0,0,0-3.52-.4c-8.8,0-17.6.1-26.39-.08a65.69,65.69,0,0,1-11.89-1.22c-17.47-3.63-33.16-20.16-34.34-39.64a52.25,52.25,0,0,1,1.74-18.51,44.78,44.78,0,0,1,41.56-31.44c9.11-.19,18.23,0,27.35-.06,1.74,0,3.48-.06,5.27-.09,1.35-3.48.58-6.86.7-10.15s.07-6.72,0-10.08.24-6.67-.3-10.16c-1.33-.15-2.4-.36-3.47-.37-9.76,0-19.52-.05-29.27,0-39.75.25-66.91,30.7-72.68,58.12-3.61,17.15-2.67,34.06,3.57,50.47,5.62,14.8,15.87,25.7,29.58,33.45,1.11.63,2.24,1.23,3.37,1.82S2726.05,522.44,2727.72,523.26Z" fill="#6b6b6b" fill-rule="evenodd"/><path d="M578.85,218.85c0-2.43-.12-4.48-.12-6.53q0-96.21,0-192.43c0-2.24,0-4.48-.1-6.71a14.7,14.7,0,0,0-3.2-8.38c-5-6.36-19.21-6.33-24.21,0A15.74,15.74,0,0,0,548,13.19a44.93,44.93,0,0,0-.12,4.79q0,107,0,214a34.79,34.79,0,0,0,.54,7.15c1.33,6.29,5.53,9.94,11.93,10.69a34.93,34.93,0,0,0,3.83.15h95.5a21.8,21.8,0,0,0,7.56-1,12.48,12.48,0,0,0,8.27-9.23,21.29,21.29,0,0,0,0-10.46,12.45,12.45,0,0,0-8.79-9.31,26.17,26.17,0,0,0-8.07-.89h-64.3c-4.16,0-8.32,0-12.48,0C581.07,219.1,580.28,219,578.85,218.85Z" fill="#6b6b6b" fill-rule="evenodd"/><path d="M846.67,219.12c0-2.75-.11-4.8-.11-6.85q0-96.21,0-192.43c0-2.08.07-4.16-.07-6.23C846,5.6,841,.62,833,.15a20.82,20.82,0,0,0-8.06.81A12.18,12.18,0,0,0,816.6,9.5a29,29,0,0,0-.86,5.18c-.14,1.42,0,2.87,0,4.31v212.1c0,1.76-.06,3.53.07,5.28.6,8.27,5.6,13.14,13.9,13.57,1.27.07,2.56.05,3.83.05h92.62a51.37,51.37,0,0,0,5.27-.15c7-.75,11.29-5.05,12.3-12a22.31,22.31,0,0,0-.28-8.11,12.49,12.49,0,0,0-8.93-9.75,26.49,26.49,0,0,0-8.07-.87H846.67Z" fill="#6b6b6b" fill-rule="evenodd"/><path d="M3075.06,377.44c-.15,1.6-.31,2.53-.31,3.45q0,122.81,0,245.84a16.67,16.67,0,0,0,2.91.59c4.48,0,8.95,0,13.43,0a18.6,18.6,0,0,0,3.34-.29,12.85,12.85,0,0,0,10.85-11.28,47.64,47.64,0,0,0,.26-6.22q0-51.57,0-103.15,0-54.94,0-109.88c0-1.92,0-3.84-.09-5.75-.51-7.59-5.14-12.52-12.7-13.15-4.13-.34-8.31-.13-12.47-.16Z" fill="#6b6b6b" fill-rule="evenodd"/><path d="M2807,378c0,2.23-.09,4.13-.09,6q0,43.2.06,86.4,0,69.35,0,138.71a41.31,41.31,0,0,0,.61,7.62c1,5.42,4.43,8.75,9.71,10.1a21.53,21.53,0,0,0,10,.06,12.68,12.68,0,0,0,10.24-11.3,55.52,55.52,0,0,0,.23-6.71q0-77.26,0-154.55V396.24c0-1.76,0-3.52-.08-5.28-.49-8-5.37-13-13.46-13.43-3.66-.22-7.35-.1-11-.08A19.07,19.07,0,0,0,2807,378Z" fill="#6b6b6b" fill-rule="evenodd"/><path d="M1370,.37c-1.41-.13-2.18-.27-3-.27-4.32,0-8.64-.1-13,0a22.49,22.49,0,0,0-5.65.88,11.93,11.93,0,0,0-8.63,9.39,37.83,37.83,0,0,0-.68,5.22c-.1,1.11,0,2.24,0,3.36q0,106.05,0,212.09a50.06,50.06,0,0,0,.53,7.64c.9,5.86,4.45,9.43,10.14,10.79a20.47,20.47,0,0,0,10-.09,12.66,12.66,0,0,0,10-11.52,48.93,48.93,0,0,0,.16-5.28q0-23.27,0-46.54V37.8q0-15.84.08-31.67Z" fill="#6b6b6b" fill-rule="evenodd"/><path d="M1668,125.25q0,53.24,0,106.47a53.65,53.65,0,0,0,.2,6.22,12.64,12.64,0,0,0,10,11.47,20.39,20.39,0,0,0,11.35-.33,11.92,11.92,0,0,0,8.44-9,33.34,33.34,0,0,0,.81-7.11c.1-6.4,0-12.79,0-19.19q0-97.35,0-194.71a47.72,47.72,0,0,0-.61-8.1c-1-5.63-4.49-9-10-10.38a20.67,20.67,0,0,0-10,0,12.73,12.73,0,0,0-10.06,11.45,53.72,53.72,0,0,0-.2,6.22Q1667.94,71.78,1668,125.25Z" fill="#6b6b6b" fill-rule="evenodd"/><path d="M1407,502.87q0,53,0,106a55.12,55.12,0,0,0,.14,5.75c.78,7.53,5.63,12.18,13.21,12.64a25.58,25.58,0,0,0,5.74-.16c5.72-.92,9.7-4,11.05-9.85a29.51,29.51,0,0,0,.69-6.63q0-108.15,0-216.3a23.67,23.67,0,0,0-.91-7.58,12.47,12.47,0,0,0-8.48-8.42,20.29,20.29,0,0,0-10-.55c-6.64,1.18-10.65,5.59-11.37,12.41a54.93,54.93,0,0,0-.15,5.74Q1407,449.39,1407,502.87Z" fill="#6b6b6b" fill-rule="evenodd"/></g></g></svg>
